<mxfile host="app.diagrams.net" agent="Mozilla/5.0 (Windows NT 10.0; Win64; x64) AppleWebKit/537.36 (KHTML, like Gecko) Chrome/127.0.0.0 Safari/537.36" version="24.7.7">
  <diagram id="FF3WkmvX_J6pYm6_jYoH" name="Page-1">
    <mxGraphModel dx="2109" dy="2862" grid="1" gridSize="10" guides="1" tooltips="1" connect="1" arrows="1" fold="1" page="1" pageScale="1" pageWidth="850" pageHeight="1100" math="0" shadow="0">
      <root>
        <mxCell id="0" />
        <mxCell id="1" parent="0" />
        <mxCell id="9KkfMpieF7Y5ebLLUVFt-1" value="&lt;h1&gt;Start Game State&lt;/h1&gt;&lt;ol style=&quot;forced-color-adjust: none; orphans: 2; text-align: left; text-indent: 0px; widows: 2; background-color: rgb(251, 251, 251); text-decoration-thickness: initial; text-decoration-style: initial; text-decoration-color: initial;&quot;&gt;&lt;li style=&quot;color: rgb(0, 0, 0); font-family: Helvetica; font-size: 12px; font-style: normal; font-variant-ligatures: normal; font-variant-caps: normal; font-weight: 400; letter-spacing: normal; text-transform: none; word-spacing: 0px; -webkit-text-stroke-width: 0px; white-space: normal;&quot;&gt;get Player_ID[]s&lt;br&gt;&lt;/li&gt;&lt;li style=&quot;color: rgb(0, 0, 0); font-family: Helvetica; font-size: 12px; font-style: normal; font-variant-ligatures: normal; font-variant-caps: normal; font-weight: 400; letter-spacing: normal; text-transform: none; word-spacing: 0px; -webkit-text-stroke-width: 0px; white-space: normal;&quot;&gt;create player_order[player_IDs]&amp;nbsp;&lt;br&gt;&lt;/li&gt;&lt;li style=&quot;color: rgb(0, 0, 0); font-family: Helvetica; font-size: 12px; font-style: normal; font-variant-ligatures: normal; font-variant-caps: normal; font-weight: 400; letter-spacing: normal; text-transform: none; word-spacing: 0px; -webkit-text-stroke-width: 0px; white-space: normal;&quot;&gt;set player_ID.insight = true for first player in player_order[]&lt;br&gt;&lt;/li&gt;&lt;li style=&quot;color: rgb(0, 0, 0); font-family: Helvetica; font-size: 12px; font-style: normal; font-variant-ligatures: normal; font-variant-caps: normal; font-weight: 400; letter-spacing: normal; text-transform: none; word-spacing: 0px; -webkit-text-stroke-width: 0px; white-space: normal;&quot;&gt;&lt;span style=&quot;background-color: initial;&quot;&gt;Go to First Turn Scene&lt;/span&gt;&lt;br&gt;&lt;/li&gt;&lt;li style=&quot;color: rgb(0, 0, 0); font-family: Helvetica; font-size: 12px; font-style: normal; font-variant-ligatures: normal; font-variant-caps: normal; font-weight: 400; letter-spacing: normal; text-transform: none; word-spacing: 0px; -webkit-text-stroke-width: 0px; white-space: normal;&quot;&gt;Create battlefield Scene&lt;br&gt;&lt;/li&gt;&lt;ol style=&quot;forced-color-adjust: none;&quot;&gt;&lt;li style=&quot;color: rgb(0, 0, 0); font-family: Helvetica; font-size: 12px; font-style: normal; font-variant-ligatures: normal; font-variant-caps: normal; font-weight: 400; letter-spacing: normal; text-transform: none; word-spacing: 0px; -webkit-text-stroke-width: 0px; white-space: normal;&quot;&gt;&lt;span style=&quot;background-color: initial;&quot;&gt;For each playerID in player_order:&lt;/span&gt;&lt;br&gt;&lt;/li&gt;&lt;ol style=&quot;forced-color-adjust: none;&quot;&gt;&lt;li style=&quot;color: rgb(0, 0, 0); font-family: Helvetica; font-size: 12px; font-style: normal; font-variant-ligatures: normal; font-variant-caps: normal; font-weight: 400; letter-spacing: normal; text-transform: none; word-spacing: 0px; -webkit-text-stroke-width: 0px; white-space: normal;&quot;&gt;&lt;span style=&quot;background-color: initial;&quot;&gt;CreateBattlefield(Player_ID)&lt;/span&gt;&lt;br&gt;&lt;/li&gt;&lt;ol style=&quot;forced-color-adjust: none;&quot;&gt;&lt;li style=&quot;color: rgb(0, 0, 0); font-family: Helvetica; font-size: 12px; font-style: normal; font-variant-ligatures: normal; font-variant-caps: normal; font-weight: 400; letter-spacing: normal; text-transform: none; word-spacing: 0px; -webkit-text-stroke-width: 0px; white-space: normal;&quot;&gt;&lt;span style=&quot;background-color: initial;&quot;&gt;Create Player_ID.Command_Zone&lt;/span&gt;&lt;br&gt;&lt;/li&gt;&lt;ol style=&quot;forced-color-adjust: none;&quot;&gt;&lt;li style=&quot;color: rgb(0, 0, 0); font-family: Helvetica; font-size: 12px; font-style: normal; font-variant-ligatures: normal; font-variant-caps: normal; font-weight: 400; letter-spacing: normal; text-transform: none; word-spacing: 0px; -webkit-text-stroke-width: 0px; white-space: normal;&quot;&gt;&lt;span style=&quot;background-color: initial;&quot;&gt;Create Player_ID.Command_Zone.Strategy_Card_Zone(Player_ID.Strategy_Card)&lt;/span&gt;&lt;br&gt;&lt;/li&gt;&lt;li style=&quot;&quot;&gt;&lt;br&gt;&lt;/li&gt;&lt;/ol&gt;&lt;li&gt;&lt;span style=&quot;background-color: initial;&quot;&gt;Create Player_ID.Patrol.Zone&lt;/span&gt;&lt;br&gt;&lt;/li&gt;&lt;li&gt;&lt;span style=&quot;background-color: initial;&quot;&gt;Create Player_ID.&lt;/span&gt;&lt;br&gt;&lt;/li&gt;&lt;/ol&gt;&lt;li&gt;&lt;span style=&quot;background-color: initial;&quot;&gt;place HQ decks&lt;/span&gt;&lt;br&gt;&lt;/li&gt;&lt;li&gt;place strategy card&lt;br&gt;&lt;/li&gt;&lt;/ol&gt;&lt;/ol&gt;&lt;/ol&gt;" style="text;whiteSpace=wrap;html=1;" vertex="1" parent="1">
          <mxGeometry x="-840" y="-2190" width="560" height="450" as="geometry" />
        </mxCell>
      </root>
    </mxGraphModel>
  </diagram>
</mxfile>
